<svg width="60" height="62" viewBox="0 0 60 62" fill="none" xmlns="http://www.w3.org/2000/svg">
<circle cx="30" cy="30" r="30" fill="#8FBDD9"/>
<path d="M41.95 49.2C35.7167 49.2 31.1 47.4333 28.1 43.9C27.0333 42.6333 26.1667 40.95 25.5 38.85C24.8333 36.75 24.5 34.2 24.5 31.2C24.5 28.2 24.9833 25.5167 25.95 23.15C26.95 20.75 28.3 18.9 30 17.6C33.3 15.1667 37.2833 13.95 41.95 13.95C43.2833 13.95 44.5833 14.0667 45.85 14.3C47.1167 14.5 48.0667 14.7167 48.7 14.95L49.6 15.3L49.45 15.8C47.1833 14.9 44.6833 14.45 41.95 14.45C38.4167 14.45 35.4667 15.6 33.1 17.9C31.3 19.6 30.0333 22.1 29.3 25.4C28.8667 27.2667 28.65 29.55 28.65 32.25C28.65 34.95 29.0333 37.45 29.8 39.75C30.5667 42.0167 31.4333 43.7 32.4 44.8C33.4 45.9 34.6 46.7833 36 47.45C37.4 48.0833 38.5167 48.45 39.35 48.55C40.1833 48.65 41.1833 48.7 42.35 48.7C43.55 48.7 44.9 48.5833 46.4 48.35C47.9 48.1167 49.0333 47.9 49.8 47.7L50.95 47.35L51.1 47.85C48.5667 48.75 45.5167 49.2 41.95 49.2Z" fill="#1B187D"/>
<path d="M15.5 14.05C16.9667 13.9833 18.4 13.95 19.8 13.95C21.2333 13.95 22.7333 14.1 24.3 14.4C25.9 14.7 27.4667 15.2667 29 16.1C30.5667 16.9 31.8833 17.95 32.95 19.25C34.05 20.5167 34.9333 22.2 35.6 24.3C36.2667 26.4 36.6 28.95 36.6 31.95C36.6 34.95 36.1 37.65 35.1 40.05C34.1333 42.4167 32.8 44.2333 31.1 45.5C27.8 47.9667 23.8167 49.2 19.15 49.2C17.5167 49.2 15.8 49.1333 14 49H11.5V14.05H15.5ZM15.65 48.6C16.35 48.6667 17.2333 48.7 18.3 48.7C19.3667 48.7 20.1667 48.6833 20.7 48.65C21.2333 48.6167 21.9667 48.4833 22.9 48.25C23.8333 47.9833 24.7 47.6333 25.5 47.2C26.3 46.7667 27.1333 46.1333 28 45.3C28.9 44.4333 29.6667 43.4167 30.3 42.25C31.7333 39.5167 32.45 35.95 32.45 31.55C32.45 28.4167 32.0667 25.7167 31.3 23.45C30.5333 21.15 29.65 19.45 28.65 18.35C27.6833 17.25 26.5 16.3833 25.1 15.75C23.7 15.0833 22.5833 14.7 21.75 14.6C20.9167 14.5 19.95 14.45 18.85 14.45C17.75 14.45 16.6833 14.5 15.65 14.6V48.6Z" fill="#1B187D"/>
</svg>
